<?xml version="1.0" standalone="no"?>
<!DOCTYPE svg PUBLIC "-//W3C//DTD SVG 1.1//EN" "http://www.w3.org/Graphics/SVG/1.1/DTD/svg11.dtd" >
<svg xmlns="http://www.w3.org/2000/svg" xmlns:xlink="http://www.w3.org/1999/xlink" version="1.1">
<metadata></metadata>
<defs>
<font id="bogs_headlineregular" horiz-adv-x="900" >
<font-face units-per-em="2048" ascent="1638" descent="-410" />
<missing-glyph horiz-adv-x="300" />
<glyph horiz-adv-x="0" />
<glyph unicode="&#xd;" horiz-adv-x="508" />
<glyph horiz-adv-x="0" />
<glyph horiz-adv-x="0" />
<glyph unicode=" "  horiz-adv-x="300" />
<glyph unicode="&#x09;" horiz-adv-x="300" />
<glyph unicode="&#xa0;" horiz-adv-x="300" />
<glyph unicode="!" horiz-adv-x="400" d="M0 0v260h300v-260h-300zM0 360v1040h300v-1040h-300z" />
<glyph unicode="&#x22;" horiz-adv-x="700" d="M0 1400h300l-55 -400h-200zM300 1400h300l-55 -400h-200z" />
<glyph unicode="#" horiz-adv-x="1000" d="M15 447v220h161l53 263h-112v220h158l66 327h209l-68 -327h186l69 327h205l-69 -327h112v-220h-157l-53 -263h108v-220h-154l-68 -329h-208l69 329h-186l-69 -329h-201l66 329h-117zM381 667h186l56 263h-187z" />
<glyph unicode="$" horiz-adv-x="1003" d="M112 580v116h254v-98q0 -192 128 -192q54 0 81 34t27 80q0 68 -30 117t-122 113l-128 90q-208 148 -208 330q0 126 81 217t213 117v148h212v-152q242 -66 242 -384v-60h-242v42q0 194 -130 194q-44 0 -70 -26t-26 -68q0 -58 29 -89t123 -97l126 -88q220 -154 220 -390 q0 -134 -71 -222t-201 -116v-208h-212v204q-130 26 -213 123t-83 265z" />
<glyph unicode="%" horiz-adv-x="1496" d="M-56 941v74q0 180 74.5 278.5t253.5 98.5q174 0 249.5 -96t75.5 -281v-74q0 -182 -72.5 -278.5t-252.5 -96.5q-173 0 -250.5 94.5t-77.5 280.5zM218 898q0 -76 9.5 -106.5t44.5 -30.5q32 0 41.5 30.5t9.5 106.5v160q0 76 -9.5 106.5t-41.5 30.5q-35 0 -44.5 -30.5 t-9.5 -106.5v-160zM417 -20l420 1396h242l-422 -1396h-240zM899 339v74q1 180 75 279t252 98q174 1 250 -79.5t76 -265.5v-74q0 -182 -72.5 -294.5t-253.5 -112.5q-174 0 -250 95q-77 95 -77 280zM1173 296q0 -78 9 -107t44 -29q34 0 42 30q10 37 10 106v160q0 78 -10 107 q-9 30 -42 30q-35 0 -44 -29.5t-9 -107.5v-160z" />
<glyph unicode="&#x26;" horiz-adv-x="1250" d="M-18 361q0 80 26.5 147.5t75 118.5t87.5 81.5t94 64.5q-121 169 -121 301q0 140 89 234t245 94q141 0 228.5 -80.5t87.5 -219.5q0 -180 -208 -340l141 -234q89 152 108 335h245q-38 -314 -210 -538q55 -99 98 -99q17 0 28.5 10.5t15.5 34t5 40t1 48.5h165 q21 -184 -50.5 -272.5t-205.5 -88.5q-151 0 -251 141q-112 -141 -314 -141q-161 0 -270.5 99t-109.5 264zM267 391q0 -72 39 -113.5t98 -41.5q89 0 146 85l-167 281q-116 -100 -116 -211zM400 1100q0 -72 76 -188q103 99 103 180q0 46 -25.5 76.5t-65.5 30.5t-64 -29.5 t-24 -69.5z" />
<glyph unicode="'" horiz-adv-x="400" d="M0 1400h300l-55 -400h-200z" />
<glyph unicode="(" horiz-adv-x="600" d="M0 100q0 -400 500 -400v260q-200 0 -200 100v1280q0 100 200 100v260q-500 0 -500 -400v-1200z" />
<glyph unicode=")" horiz-adv-x="600" d="M0 -40q200 0 200 100v1280q0 100 -200 100v260q500 0 500 -400v-1200q0 -400 -500 -400v260z" />
<glyph unicode="*" horiz-adv-x="899" d="M112 1049l48 114l190 -32l24 214h150l28 -212l194 34l42 -112l-170 -98l90 -196l-120 -70l-132 152l-138 -154l-116 70l84 190z" />
<glyph unicode="+" horiz-adv-x="798" d="M-102 584v220h374v410h262v-410h366v-220h-366v-404h-262v404h-374z" />
<glyph unicode="," horiz-adv-x="400" d="M0 0v260h300v-160q0 -300 -300 -300v100q100 0 100 100h-100z" />
<glyph unicode="-" d="M0 566v260h700v-260h-700z" />
<glyph unicode="." horiz-adv-x="400" d="M0 0v260h300v-260h-300z" />
<glyph unicode="/" horiz-adv-x="700" d="M-100 -200l500 1800h300l-500 -1800h-300z" />
<glyph unicode="0" d="M0 380v640q0 400 400 400t400 -400v-640q0 -400 -400 -400t-400 400zM300 340q0 -100 100 -100t100 100v720q0 100 -100 100t-100 -100v-720z" />
<glyph unicode="1" horiz-adv-x="500" d="M0 1040v260q100 0 100 100h300v-1400h-300v1040h-100z" />
<glyph unicode="2" d="M0 0v260q500 540 500 760q0 140 -100 140t-100 -140h-300q0 400 400 400t400 -400q0 -320 -420 -760h420v-260h-800z" />
<glyph unicode="3" d="M0 380h300q0 -140 100 -140t100 140v100q0 90 -100 90h-140v260h140q100 0 100 90v100q0 140 -100 140t-100 -140h-300q0 400 400 400t400 -400q0 -320 -170 -320q170 0 170 -320q0 -400 -400 -400t-400 400z" />
<glyph unicode="4" d="M0 320l46 1080h300l-46 -820h140v820h300v-820h60v-260h-60v-320h-300v320h-440z" />
<glyph unicode="5" d="M0 350h299v-10q0 -100 100 -100t100 100v220q0 100 -100 100q-86 0 -98 -81l-2 -29h-297v1l-2 -1q1 38 7 73l52 777h740v-260h-458l-16 -224q35 4 74 4q400 0 400 -400v-140q0 -400 -400 -400q-385 0 -399 370z" />
<glyph unicode="6" d="M0 380v640q0 400 400 400t400 -400v-20h-300v60q0 100 -100 100t-100 -100v-270q0 69 200 70q300 0 300 -280v-200q0 -400 -400 -400t-400 400zM300 340q0 -100 100 -100t100 100v160q0 80 -100 80t-100 -70v-170z" />
<glyph unicode="7" d="M0 0h330l500 1400h-830v-260h426z" />
<glyph unicode="8" d="M0 380q0 320 180 320q-180 0 -180 320q0 400 400 400t400 -400q0 -320 -180 -320q180 0 180 -320q0 -400 -400 -400t-400 400zM300 340q0 -100 100 -100t100 100v130q0 100 -100 100t-100 -100v-130zM300 930q0 -100 100 -100t100 100v130q0 100 -100 100t-100 -100v-130 z" />
<glyph unicode="9" d="M0 380v20h300v-60q0 -100 100 -100t100 100v270q0 -69 -200 -70q-300 0 -300 280v200q0 400 400 400t400 -400v-640q0 -400 -400 -400t-400 400zM300 900q0 -80 100 -80t100 70v170q0 100 -100 100t-100 -100v-160z" />
<glyph unicode=":" horiz-adv-x="400" d="M0 20v260h300v-260h-300zM0 520v260h300v-260h-300z" />
<glyph unicode=";" horiz-adv-x="400" d="M0 21v260h300v-160q0 -300 -300 -300v100q100 0 100 100h-100zM0 521v260h300v-260h-300z" />
<glyph unicode="&#x3c;" horiz-adv-x="1000" d="M40 709v148l920 454v-254l-450 -214l-118 -52v-18l118 -48l450 -214v-254z" />
<glyph unicode="=" horiz-adv-x="798" d="M-61 405v220h920v-220h-920zM-61 869v218h920v-218h-920z" />
<glyph unicode="&#x3e;" horiz-adv-x="1000" d="M40 257v254l450 214l118 52v18l-118 48l-450 214v254l920 -452v-148z" />
<glyph unicode="?" d="M0 900v120q0 400 400 400t400 -400q0 -220 -150 -370t-150 -290h-300q0 240 150 390t150 270q0 140 -100 140t-100 -140v-120h-300zM200 0v260h300v-260h-300z" />
<glyph unicode="@" horiz-adv-x="1499" d="M92 627q0 192 64.5 351.5t171 260t236.5 155t265 54.5q264 0 421 -155t157 -421q0 -258 -120.5 -444.5t-299.5 -186.5q-161 0 -184 135q-69 -135 -181 -135q-93 0 -148 86.5t-55 228.5q0 219 100.5 400.5t230.5 181.5q53 0 92.5 -35t55.5 -94h4l22 106h188l-112 -564 q-15 -76 -15 -101q0 -51 49 -51q69 0 132.5 142.5t63.5 339.5q0 192 -107 299.5t-279 107.5q-212 0 -374.5 -180.5t-162.5 -499.5q0 -276 127 -401t329 -125q184 0 355 104l61 -129q-84 -63 -199.5 -96t-224.5 -33q-127 0 -243 40.5t-211 122.5t-152 219.5t-57 316.5z M643 539q0 -112 53 -112q36 0 60 31.5t50 117.5q46 169 46 281q0 51 -19 76.5t-45 25.5q-59 0 -102 -148t-43 -272z" />
<glyph unicode="A" horiz-adv-x="800" d="M-70 0l270 1400h300l270 -1400h-300l-21 150h-197l-22 -150h-300zM289 410h124l-61 440z" />
<glyph unicode="B" d="M0 0v1400h400q400 0 400 -400q0 -300 -200 -300q200 0 200 -300q0 -400 -400 -400h-400zM300 260h100q100 0 100 100v110q0 100 -100 100h-100v-310zM300 830h100q100 0 100 100v110q0 100 -100 100h-100v-310z" />
<glyph unicode="C" d="M0 380v640q0 400 400 400t400 -400v-100h-300v140q0 100 -100 100t-100 -100v-720q0 -100 100 -100t100 100v140h300v-100q0 -400 -400 -400t-400 400z" />
<glyph unicode="D" d="M0 0v1400h400q400 0 400 -400v-600q0 -400 -400 -400h-400zM300 260h100q100 0 100 100v680q0 100 -100 100h-100v-880z" />
<glyph unicode="E" horiz-adv-x="800" d="M0 0v1400h700v-260h-400v-310h300v-260h-300v-310h400v-260h-700z" />
<glyph unicode="F" horiz-adv-x="800" d="M0 0v1400h700v-260h-400v-310h300v-260h-300v-570h-300z" />
<glyph unicode="G" d="M0 380v640q0 400 400 400t400 -400h-300v40q0 100 -100 100t-100 -100v-720q0 -100 100 -100t100 100v230h-90v260h390v-450q0 -400 -400 -400t-400 400z" />
<glyph unicode="H" d="M0 0v1400h300v-570h200v570h300v-1400h-300v570h-200v-570h-300z" />
<glyph unicode="I" horiz-adv-x="400" d="M0 0v1400h300v-1400h-300z" />
<glyph unicode="J" horiz-adv-x="600" d="M0 0v260h100q100 0 100 100v1040h300v-1000q0 -400 -400 -400h-100z" />
<glyph unicode="K" d="M0 0v1400h300v-410l200 410h320l-320 -630l320 -770h-320l-174 478l-26 -48v-430h-300z" />
<glyph unicode="L" horiz-adv-x="700" d="M0 0v1400h300v-1140h300v-260h-600z" />
<glyph unicode="M" horiz-adv-x="1100" d="M0 0v1400h300l200 -670l200 670h300v-1400h-300v630l-137 -430h-126l-137 430v-630h-300z" />
<glyph unicode="N" d="M0 0v1400h300l200 -700v700h300v-1400h-300l-200 700v-700h-300z" />
<glyph unicode="O" d="M0 380v640q0 400 400 400t400 -400v-640q0 -400 -400 -400t-400 400zM300 340q0 -100 100 -100t100 100v720q0 100 -100 100t-100 -100v-720z" />
<glyph unicode="P" d="M0 0v1400h400q400 0 400 -360v-110q0 -360 -400 -360h-100v-570h-300zM300 830h100q100 0 100 100v110q0 100 -100 100h-100v-310z" />
<glyph unicode="Q" d="M0 380v640q0 400 400 400t400 -400v-640q0 -400 -400 -400t-400 400zM300 340q0 -100 100 -100t100 100v720q0 100 -100 100t-100 -100v-720zM370 114l217 144l191 -254l-217 -144z" />
<glyph unicode="R" d="M0 0v1400h400q400 0 400 -360v-110q0 -144 -64 -230q64 -86 64 -230v-320q0 -80 30 -150h-300q-30 70 -30 150v320q0 100 -100 100h-100v-570h-300zM300 830h100q100 0 100 100v110q0 100 -100 100h-100v-310z" />
<glyph unicode="S" d="M0 380h300q-1 -13 -1 -26q0 -92 67 -118q22 -9 42 -9q50 0 90 51q15 34 15 68q0 128 -213 254q-75 50 -131 100q-169 150 -169 320q0 400 400 400t400 -400h-300q1 13 1 26q0 92 -67 118q-22 9 -42 9q-50 0 -90 -51q-15 -34 -15 -68q0 -128 213 -254q75 -50 131 -100 q169 -150 169 -320q0 -400 -400 -400t-400 400z" />
<glyph unicode="T" d="M0 1140v260h800v-260h-250v-1140h-300v1140h-250z" />
<glyph unicode="U" d="M0 380v1020h300v-1060q0 -100 100 -100t100 100v1060h300v-1020q0 -400 -400 -400t-400 400z" />
<glyph unicode="V" horiz-adv-x="800" d="M-70 1400h300l122 -850l118 850h300l-270 -1400h-300z" />
<glyph unicode="W" horiz-adv-x="1100" d="M-70 1400h300l70 -710l57 710h282l61 -710l70 710h300l-170 -1400h-300l-100 650l-100 -650h-300z" />
<glyph unicode="X" d="M-20 0l220 700l-220 700h300l120 -440l120 440h300l-220 -700l220 -700h-300l-120 440l-120 -440h-300z" />
<glyph unicode="Y" d="M-20 1400h300l120 -440l120 440h300l-270 -844v-556h-300v556z" />
<glyph unicode="Z" d="M0 0l396 1140h-396v260h800l-396 -1140h396v-260h-800z" />
<glyph unicode="[" horiz-adv-x="600" d="M0 -300v2000h500v-260h-200v-1480h200v-260h-500z" />
<glyph unicode="\" horiz-adv-x="700" d="M-100 1600h300l500 -1800h-300z" />
<glyph unicode="]" horiz-adv-x="600" d="M0 -40h200v1480h-200v260h500v-2000h-500v260z" />
<glyph unicode="^" horiz-adv-x="1120" d="M39 635l440 860h168l434 -860h-288l-174 374l-50 150h-16l-48 -150l-170 -374h-296z" />
<glyph unicode="_" horiz-adv-x="1000" d="M0 0v260h900v-260h-900z" />
<glyph unicode="`" horiz-adv-x="500" d="M0 1400h300l100 -300h-200z" />
<glyph unicode="a" d="M0 230v120q0 250 300 250h200v60q0 100 -100 100q-77 0 -95 -60h-301q38 320 396 320q400 0 400 -400v-620h-300v40q0 -60 -200 -60q-300 0 -300 250zM300 320q0 -80 100 -80t100 70v90h-100q-100 0 -100 -80z" />
<glyph unicode="b" d="M0 0v1400l300 1v-451q0 69 200 70q300 0 300 -250v-540q0 -250 -300 -250q-200 0 -200 70v-50h-300zM300 310q0 -70 100 -70t100 80v360q0 80 -100 80t-100 -70v-380z" />
<glyph unicode="c" d="M0 380v240q0 400 400 400t400 -400v-20h-300v60q0 100 -100 100t-100 -100v-320q0 -100 100 -100t100 100v60h300v-20q0 -400 -400 -400t-400 400z" />
<glyph unicode="d" d="M0 230v540q0 250 300 250q200 -1 200 -70v451l300 -1v-1400h-300v50q0 -70 -200 -70q-300 0 -300 250zM300 320q0 -80 100 -80t100 70v380q0 70 -100 70t-100 -80v-360z" />
<glyph unicode="e" d="M0 380v240q0 400 400 400t400 -400v-220h-500v-60q0 -100 100 -100q77 0 95 60h301q-38 -320 -396 -320q-400 0 -400 400zM300 600h200v60q0 100 -100 100t-100 -100v-60z" />
<glyph unicode="f" horiz-adv-x="600" d="M-100 740v260h100v20q0 400 400 400h100v-260h-100q-100 0 -100 -100v-60h200v-260h-200v-740h-300v740h-100z" />
<glyph unicode="g" d="M0 231v540q0 250 300 250q200 0 200 -70v50h300v-1001q0 -400 -400 -400q-358 0 -396 320h301q18 -60 95 -60q100 0 100 100v91q0 -69 -200 -70q-300 0 -300 250zM300 321q0 -80 100 -80t100 70v380q0 70 -100 70t-100 -80v-360z" />
<glyph unicode="h" d="M0 0v1400l300 1v-451q0 69 200 70q300 0 300 -250v-770h-300v680q0 80 -100 80t-100 -70v-690h-300z" />
<glyph unicode="i" horiz-adv-x="400" d="M0 0v1000h300v-1000h-300zM0 1100v260h300v-260h-300z" />
<glyph unicode="j" horiz-adv-x="400" d="M-100 -140q100 0 100 100v1040h300v-1000q0 -400 -400 -400v260zM0 1100v260h300v-260h-300z" />
<glyph unicode="k" d="M0 0v1400h300v-720l220 320h310l-320 -470l320 -530h-320l-174 318l-36 -48v-270h-300z" />
<glyph unicode="l" horiz-adv-x="400" d="M0 0v1400h300v-1400h-300z" />
<glyph unicode="m" horiz-adv-x="1400" d="M0 0v1000h300v-50q0 69 200 70q118 0 190 -39q85 39 210 39q400 0 400 -400v-620h-300v660q0 100 -100 100t-100 -100v-660h-300v680q0 80 -100 80t-100 -70v-690h-300z" />
<glyph unicode="n" d="M0 0v1000h300v-50q0 69 200 70q300 0 300 -250v-770h-300v680q0 80 -100 80t-100 -70v-690h-300z" />
<glyph unicode="o" d="M0 380v240q0 400 400 400t400 -400v-240q0 -400 -400 -400t-400 400zM300 340q0 -100 100 -100t100 100v320q0 100 -100 100t-100 -100v-320z" />
<glyph unicode="p" d="M0 -399v1400h300v-50q0 70 200 70q300 0 300 -250v-540q0 -250 -300 -250q-200 1 -200 70v-451zM300 311q0 -70 100 -70t100 80v360q0 80 -100 80t-100 -70v-380z" />
<glyph unicode="q" d="M0 231v540q0 250 300 250q200 0 200 -70v50h300v-1400l-300 -1v451q0 -69 -200 -70q-300 0 -300 250zM300 321q0 -80 100 -80t100 70v380q0 70 -100 70t-100 -80v-360z" />
<glyph unicode="r" horiz-adv-x="600" d="M0 0v1000h300v-50q0 69 200 70v-260h-100q-100 0 -100 -70v-690h-300z" />
<glyph unicode="s" horiz-adv-x="873" d="M0 300h285q0 -90 94 -90h1q95 0 95 90q0 48 -190 100q-285 100 -285 323q0 307 380 307t380 -330h-285q0 90 -94 90h-1q-95 0 -95 -90q0 -48 190 -100q285 -100 285 -323q0 -307 -380 -307t-380 330z" />
<glyph unicode="t" horiz-adv-x="600" d="M-20 740v260h60v400h300v-400h160v-260h-160v-380q0 -100 100 -100h60v-260h-60q-400 0 -400 400v340h-60z" />
<glyph unicode="u" d="M0 230v770h300v-680q0 -80 100 -80t100 70v690h300v-1000h-300v50q0 -69 -200 -70q-300 0 -300 250z" />
<glyph unicode="v" horiz-adv-x="800" d="M-70 1000h300l122 -597l118 597h300l-270 -1000h-300z" />
<glyph unicode="w" horiz-adv-x="1100" d="M-66 1000h300l66 -510l61 510h282l57 -510l74 510h300l-194 -1000h-300l-80 436l-80 -436h-300z" />
<glyph unicode="x" horiz-adv-x="800" d="M-50 0l200 500l-200 500h300l100 -329l100 329h300l-200 -500l200 -500h-300l-100 330l-100 -330h-300z" />
<glyph unicode="y" d="M0 231v769h300v-679q0 -80 100 -80t100 70v689h300v-1000q0 -400 -400 -400q-358 0 -396 320h301q18 -60 95 -60q100 0 100 100v91q0 -69 -200 -70q-300 0 -300 250z" />
<glyph unicode="z" d="M0 0l370 741l-370 -1v257h800l-370 -738h370v-259h-800z" />
<glyph unicode="{" horiz-adv-x="700" d="M0 570v260q100 0 100 100v370q0 400 500 400v-260q-200 0 -200 -100v-370q0 -172 -74 -270q74 -98 74 -270v-370q0 -100 200 -100v-260q-500 0 -500 400v370q0 100 -100 100z" />
<glyph unicode="|" horiz-adv-x="500" d="M0 -300v2000h300v-2000h-300z" />
<glyph unicode="}" horiz-adv-x="700" d="M0 -40q200 0 200 100v370q0 172 74 270q-74 98 -74 270v370q0 100 -200 100v260q500 0 500 -400v-370q0 -100 100 -100v-260q-100 0 -100 -100v-370q0 -400 -500 -400v260z" />
<glyph unicode="~" d="M0 570v260q200 100 350 0t350 0v-260q-200 -100 -350 0t-350 0z" />
<glyph unicode="&#xa1;" horiz-adv-x="400" d="M0 -376v1040h300v-1040h-300zM0 764v260h300v-260h-300z" />
<glyph unicode="&#xa2;" d="M0 380v240q0 346 300 393v127h200v-127q300 -47 300 -393v-20h-300v60q0 100 -100 100t-100 -100v-320q0 -100 100 -100t100 100v60h300v-20q0 -346 -300 -393v-127h-200v127q-300 47 -300 393z" />
<glyph unicode="&#xa3;" horiz-adv-x="899" d="M-81 241q0 114 71 175t171 61q104 0 186 -64q-4 106 -90 248h-292v202h168q-72 134 -72 260q0 178 103 267t277 89q382 0 382 -418h-262q0 214 -104 214q-50 0 -71 -37t-19 -87q0 -18 4 -37t12 -42t15 -39t22 -43t22 -40t27 -44t26 -43h328v-202h-232q24 -82 24 -148 q0 -110 -44 -220q56 -46 120 -46q22 0 37 6t24 21t14 29t8 46t3 53v67h172q66 -212 -13 -340t-255 -128q-144 0 -250 96q-116 -96 -258 -96q-112 0 -183 66t-71 174zM87 247q0 -36 27 -58t75 -22q82 0 126 70q-76 90 -148 90q-32 0 -56 -20t-24 -60z" />
<glyph unicode="&#xa4;" horiz-adv-x="1200" d="M0 400l134 134q-34 76 -34 166t34 166l-134 134l200 200l134 -134q76 34 166 34t166 -34l134 134l200 -200l-134 -134q34 -76 34 -166t-34 -166l134 -134l-200 -200l-134 134q-76 -34 -166 -34t-166 34l-134 -134zM400 700q0 -81 29.5 -110.5t70.5 -29.5t70.5 29.5 t29.5 110.5t-29.5 110.5t-70.5 29.5t-70.5 -29.5t-29.5 -110.5z" />
<glyph unicode="&#xa5;" d="M-20 1400h300l120 -440l120 440h300l-256 -800h136v-200h-150v-100h150v-200h-150v-100h-300v100h-150v200h150v100h-150v200h136z" />
<glyph unicode="&#xa6;" horiz-adv-x="1014" d="M0 -300v900h300v-900h-300zM0 800v900h300v-900h-300z" />
<glyph unicode="&#xa7;" horiz-adv-x="700" d="M0 267q0 -267 267 -267q266 0 266 267q0 111 -137 221q111 44 136 175q1 37 1 71q0 133 -200 266t-133 200q99 64 133 -67h200q0 267 -266 267q-267 0 -267 -267q0 -110 138 -221q-112 -44 -138 -175v-70q0 -133 200 -267q200 -133 133 -200q-98 -72 -133 67h-200z M200 734q133 66 133 -67q-133 -67 -133 67z" />
<glyph unicode="&#xa8;" horiz-adv-x="600" d="M0 1200v200h200v-200h-200zM300 1200v200h200v-200h-200z" />
<glyph unicode="&#xa9;" horiz-adv-x="1500" d="M0 700q0 290 205 495t495 205t495 -205t205 -495t-205 -495t-495 -205t-495 205t-205 495zM200 700q0 -207 146.5 -353.5t353.5 -146.5t353.5 146.5t146.5 353.5t-146.5 353.5t-353.5 146.5t-353.5 -146.5t-146.5 -353.5zM300 700q0 166 117 283t283 117t283 -117 q80 -80 105 -183h-214q-13 22 -32 42q-59 58 -142 58t-141.5 -58.5t-58.5 -141.5t58.5 -141.5t141.5 -58.5t142 59q19 19 32 41h214q-25 -103 -105 -183q-117 -117 -283 -117t-283 117t-117 283z" />
<glyph unicode="&#xad;" d="M0 566v260h700v-260h-700z" />
<glyph unicode="&#xae;" horiz-adv-x="1500" d="M0 700q0 290 205 495t495 205t495 -205t205 -495t-205 -495t-495 -205t-495 205t-205 495zM200 700q0 -207 146.5 -353.5t353.5 -146.5t353.5 146.5t146.5 353.5t-146.5 353.5t-353.5 146.5t-353.5 -146.5t-146.5 -353.5zM409 370v669h382q191 0 191 -172v-53 q0 -68 -30 -110q30 -41 30 -109v-153q0 -39 15 -72h-144q-14 33 -14 72v153q0 47 -48 47h-239v-272h-143zM552 767h239q48 0 48 47v53q0 48 -48 48h-239v-148z" />
<glyph unicode="&#xaf;" horiz-adv-x="1000" d="M0 1140v260h900v-260h-900z" />
<glyph unicode="&#xb0;" horiz-adv-x="600" d="M0 1150q0 104 73 177t177 73t177 -73t73 -177t-73 -177t-177 -73t-177 73t-73 177zM150 1150q0 -41 29.5 -70.5t70.5 -29.5t70.5 29.5t29.5 70.5t-29.5 70.5t-70.5 29.5t-70.5 -29.5t-29.5 -70.5z" />
<glyph unicode="&#xb4;" horiz-adv-x="500" d="M0 1100l100 300h300l-200 -300h-200z" />
<glyph unicode="&#xb5;" d="M0 -399v1400h300v-690q0 -70 100 -70t100 80v680h300v-770q0 -250 -300 -250q-200 1 -200 70v-451z" />
<glyph unicode="&#xb6;" horiz-adv-x="1000" d="M0 860v240q0 300 300 300h600v-1400h-200v1200h-100v-1200h-200v570h-100q-300 0 -300 290z" />
<glyph unicode="&#xb7;" horiz-adv-x="300" d="M0 607v221h255v-221h-255z" />
<glyph unicode="&#xb8;" horiz-adv-x="400" d="M0 -100l100 200h200l-100 -200q100 -100 0 -200h-200q100 100 0 200z" />
<glyph unicode="&#xbf;" d="M0 4q0 220 150 370t150 290h300q0 -240 -150 -390t-150 -270q0 -140 100 -140t100 140v120h300v-120q0 -400 -400 -400t-400 400zM300 764v260h300v-260h-300z" />
<glyph unicode="&#xc0;" horiz-adv-x="800" d="M-70 0l270 1400h300l270 -1400h-300l-21 150h-197l-22 -150h-300zM83 1810h300l100 -300h-200zM289 410h124l-61 440z" />
<glyph unicode="&#xc1;" horiz-adv-x="800" d="M-70 0l270 1400h300l270 -1400h-300l-21 150h-197l-22 -150h-300zM217 1510l100 300h300l-200 -300h-200zM289 410h124l-61 440z" />
<glyph unicode="&#xc2;" horiz-adv-x="800" d="M-70 0l270 1400h300l270 -1400h-300l-21 150h-197l-22 -150h-300zM100 1448l250 252l251 -252h-184l-67 51l-66 -51h-184zM289 410h124l-61 440z" />
<glyph unicode="&#xc3;" horiz-adv-x="800" d="M-70 0l270 1400h300l270 -1400h-300l-21 150h-197l-22 -150h-300zM93 1471v192q148 74 258.5 0t258.5 0v-192q-148 -74 -258.5 0t-258.5 0zM289 410h124l-61 440z" />
<glyph unicode="&#xc4;" horiz-adv-x="800" d="M-70 0l270 1400h300l270 -1400h-300l-21 150h-197l-22 -150h-300zM100 1500v200h200v-200h-200zM289 410h124l-61 440zM400 1500v200h200v-200h-200z" />
<glyph unicode="&#xc5;" horiz-adv-x="800" d="M-70 0l270 1400h300l270 -1400h-300l-21 150h-197l-22 -150h-300zM202 1561q0 62 43.5 105.5t105.5 43.5t105.5 -43.5t43.5 -105.5t-43.5 -105.5t-105.5 -43.5t-105.5 43.5t-43.5 105.5zM289 410h124l-61 440zM291 1561q0 -25 17.5 -42.5t42.5 -17.5t42.5 17.5t17.5 42.5 t-17.5 42.5t-42.5 17.5t-42.5 -17.5t-17.5 -42.5z" />
<glyph unicode="&#xc6;" horiz-adv-x="1300" d="M-70 0l536 1400h734v-260h-400v-310h300v-260h-300v-310h400v-260h-730l8 150h-197l-51 -150h-300zM367 410h124l9 172v226z" />
<glyph unicode="&#xc7;" d="M0 380v640q0 400 400 400t400 -400v-100h-300v140q0 100 -100 100t-100 -100v-720q0 -100 100 -100t100 100v140h300v-100q0 -350 -307 -394l-43 -86q100 -100 0 -200h-200q100 100 0 200l44 88q-294 49 -294 392z" />
<glyph unicode="&#xc8;" horiz-adv-x="800" d="M0 0v1400h700v-260h-400v-310h300v-260h-300v-310h400v-260h-700zM83 1810h300l100 -300h-200z" />
<glyph unicode="&#xc9;" horiz-adv-x="800" d="M0 0v1400h700v-260h-400v-310h300v-260h-300v-310h400v-260h-700zM217 1510l100 300h300l-200 -300h-200z" />
<glyph unicode="&#xca;" horiz-adv-x="800" d="M0 0v1400h700v-260h-400v-310h300v-260h-300v-310h400v-260h-700zM100 1448l250 252l251 -252h-184l-67 51l-66 -51h-184z" />
<glyph unicode="&#xcb;" horiz-adv-x="800" d="M0 0v1400h700v-260h-400v-310h300v-260h-300v-310h400v-260h-700zM100 1500v200h200v-200h-200zM400 1500v200h200v-200h-200z" />
<glyph unicode="&#xcc;" horiz-adv-x="400" d="M-117 1810h300l100 -300h-200zM0 0v1400h300v-1400h-300z" />
<glyph unicode="&#xcd;" horiz-adv-x="400" d="M0 0v1400h300v-1400h-300zM17 1510l100 300h300l-200 -300h-200z" />
<glyph unicode="&#xce;" horiz-adv-x="400" d="M-100 1468l250 252l251 -252h-184l-67 51l-66 -51h-184zM0 0v1400h300v-1400h-300z" />
<glyph unicode="&#xcf;" horiz-adv-x="400" d="M-100 1500v200h200v-200h-200zM0 0v1400h300v-1400h-300zM200 1500v200h200v-200h-200z" />
<glyph unicode="&#xd0;" horiz-adv-x="1000" d="M0 580v260h100v560h400q400 0 400 -400v-600q0 -400 -400 -400h-400v580h-100zM400 260h100q100 0 100 100v680q0 100 -100 100h-100v-300h100v-260h-100v-320z" />
<glyph unicode="&#xd1;" d="M0 0v1400h300l200 -700v700h300v-1400h-300l-200 700v-700h-300zM143 1471v192q148 74 258.5 0t258.5 0v-192q-148 -74 -258.5 0t-258.5 0z" />
<glyph unicode="&#xd2;" d="M0 380v640q0 400 400 400t400 -400v-640q0 -400 -400 -400t-400 400zM133 1810h300l100 -300h-200zM300 340q0 -100 100 -100t100 100v720q0 100 -100 100t-100 -100v-720z" />
<glyph unicode="&#xd3;" d="M0 380v640q0 400 400 400t400 -400v-640q0 -400 -400 -400t-400 400zM267 1510l100 300h300l-200 -300h-200zM300 340q0 -100 100 -100t100 100v720q0 100 -100 100t-100 -100v-720z" />
<glyph unicode="&#xd4;" d="M0 380v640q0 400 400 400t400 -400v-640q0 -400 -400 -400t-400 400zM150 1448l250 252l251 -252h-184l-67 51l-66 -51h-184zM300 340q0 -100 100 -100t100 100v720q0 100 -100 100t-100 -100v-720z" />
<glyph unicode="&#xd5;" d="M0 380v640q0 400 400 400t400 -400v-640q0 -400 -400 -400t-400 400zM143 1471v192q148 74 258.5 0t258.5 0v-192q-148 -74 -258.5 0t-258.5 0zM300 340q0 -100 100 -100t100 100v720q0 100 -100 100t-100 -100v-720z" />
<glyph unicode="&#xd6;" d="M0 380v640q0 400 400 400t400 -400v-640q0 -400 -400 -400t-400 400zM150 1500v200h200v-200h-200zM300 340q0 -100 100 -100t100 100v720q0 100 -100 100t-100 -100v-720zM450 1500v200h200v-200h-200z" />
<glyph unicode="&#xd8;" d="M0 -200l83 299q-83 99 -83 281v640q0 400 400 400q26 0 50 -2l50 182h300l-83 -299q83 -99 83 -281v-640q0 -400 -400 -400q-26 0 -50 2l-50 -182h-300zM300 880l77 279q-77 -11 -77 -99v-180zM423 241q77 11 77 99v180z" />
<glyph unicode="&#xd9;" d="M0 380v1020h300v-1060q0 -100 100 -100t100 100v1060h300v-1020q0 -400 -400 -400t-400 400zM133 1810h300l100 -300h-200z" />
<glyph unicode="&#xda;" d="M0 380v1020h300v-1060q0 -100 100 -100t100 100v1060h300v-1020q0 -400 -400 -400t-400 400zM267 1510l100 300h300l-200 -300h-200z" />
<glyph unicode="&#xdb;" d="M0 380v1020h300v-1060q0 -100 100 -100t100 100v1060h300v-1020q0 -400 -400 -400t-400 400zM150 1448l250 252l251 -252h-184l-67 51l-66 -51h-184z" />
<glyph unicode="&#xdc;" d="M0 380v1020h300v-1060q0 -100 100 -100t100 100v1060h300v-1020q0 -400 -400 -400t-400 400zM150 1490v200h200v-200h-200zM450 1490v200h200v-200h-200z" />
<glyph unicode="&#xdd;" d="M-20 1400h300l120 -440l120 440h300l-270 -844v-556h-300v556zM267 1510l100 300h300l-200 -300h-200z" />
<glyph unicode="&#xde;" horiz-adv-x="1000" d="M0 0v1400h300v-200h200q400 0 400 -360v-280q0 -360 -400 -360h-200v-200h-300zM300 460h200q100 0 100 100v280q0 100 -100 100h-200v-480z" />
<glyph unicode="&#xdf;" d="M0 0v1000q0 400 400 400t400 -400q0 -300 -170 -300q170 0 170 -300q0 -400 -400 -400v260q100 0 100 100v110q0 100 -100 100v260q100 0 100 100v110q0 100 -100 100t-100 -100v-1040h-300z" />
<glyph unicode="&#xe0;" d="M0 230v120q0 250 300 250h200v60q0 100 -100 100q-77 0 -95 -60h-301q38 320 396 320q400 0 400 -400v-620h-300v40q0 -60 -200 -60q-300 0 -300 250zM133 1400h300l100 -300h-200zM300 320q0 -80 100 -80t100 70v90h-100q-100 0 -100 -80z" />
<glyph unicode="&#xe1;" d="M0 230v120q0 250 300 250h200v60q0 100 -100 100q-77 0 -95 -60h-301q38 320 396 320q400 0 400 -400v-620h-300v40q0 -60 -200 -60q-300 0 -300 250zM267 1100l100 300h300l-200 -300h-200zM300 320q0 -80 100 -80t100 70v90h-100q-100 0 -100 -80z" />
<glyph unicode="&#xe2;" d="M0 230v120q0 250 300 250h200v60q0 100 -100 100q-77 0 -95 -60h-301q38 320 396 320q400 0 400 -400v-620h-300v40q0 -60 -200 -60q-300 0 -300 250zM150 1100l250 252l251 -252h-184l-67 51l-66 -51h-184zM300 320q0 -80 100 -80t100 70v90h-100q-100 0 -100 -80z" />
<glyph unicode="&#xe3;" d="M0 230v120q0 250 300 250h200v60q0 100 -100 100q-77 0 -95 -60h-301q38 320 396 320q400 0 400 -400v-620h-300v40q0 -60 -200 -60q-300 0 -300 250zM150 1091v192q148 74 258.5 0t258.5 0v-192q-148 -74 -258.5 0t-258.5 0zM300 320q0 -80 100 -80t100 70v90h-100 q-100 0 -100 -80z" />
<glyph unicode="&#xe4;" d="M0 230v120q0 250 300 250h200v60q0 100 -100 100q-77 0 -95 -60h-301q38 320 396 320q400 0 400 -400v-620h-300v40q0 -60 -200 -60q-300 0 -300 250zM150 1100v200h200v-200h-200zM300 320q0 -80 100 -80t100 70v90h-100q-100 0 -100 -80zM450 1100v200h200v-200h-200z " />
<glyph unicode="&#xe5;" d="M0 230v120q0 250 300 250h200v60q0 100 -100 100q-77 0 -95 -60h-301q38 320 396 320q400 0 400 -400v-620h-300v40q0 -60 -200 -60q-300 0 -300 250zM252 1229q0 62 43.5 105.5t105.5 43.5t105.5 -43.5t43.5 -105.5t-43.5 -105.5t-105.5 -43.5t-105.5 43.5t-43.5 105.5z M300 320q0 -80 100 -80t100 70v90h-100q-100 0 -100 -80zM341 1229q0 -25 17.5 -42.5t42.5 -17.5t42.5 17.5t17.5 42.5t-17.5 42.5t-42.5 17.5t-42.5 -17.5t-17.5 -42.5z" />
<glyph unicode="&#xe6;" horiz-adv-x="1400" d="M0 230v120q0 250 300 250h200v60q0 100 -100 100q-77 0 -95 -60h-301q38 320 396 320q155 0 250 -60q95 60 250 60q400 0 400 -400v-220h-500v-60q0 -100 100 -100q77 0 95 60h301q-38 -320 -396 -320q-89 0 -159 20h-241v40q0 -60 -200 -60q-300 0 -300 250zM300 320 q0 -80 100 -80t100 70v90h-100q-100 0 -100 -80zM800 600h200v60q0 100 -100 100t-100 -100v-60z" />
<glyph unicode="&#xe7;" d="M0 380v240q0 400 400 400t400 -400v-20h-300v60q0 100 -100 100t-100 -100v-320q0 -100 100 -100t100 100v60h300v-20q0 -350 -307 -394l-43 -86q100 -100 0 -200h-200q100 100 0 200l44 88q-294 49 -294 392z" />
<glyph unicode="&#xe8;" d="M0 380v240q0 400 400 400t400 -400v-220h-500v-60q0 -100 100 -100q77 0 95 60h301q-38 -320 -396 -320q-400 0 -400 400zM133 1400h300l100 -300h-200zM300 600h200v60q0 100 -100 100t-100 -100v-60z" />
<glyph unicode="&#xe9;" d="M0 380v240q0 400 400 400t400 -400v-220h-500v-60q0 -100 100 -100q77 0 95 60h301q-38 -320 -396 -320q-400 0 -400 400zM267 1100l100 300h300l-200 -300h-200zM300 600h200v60q0 100 -100 100t-100 -100v-60z" />
<glyph unicode="&#xea;" d="M0 380v240q0 400 400 400t400 -400v-220h-500v-60q0 -100 100 -100q77 0 95 60h301q-38 -320 -396 -320q-400 0 -400 400zM150 1100l250 252l251 -252h-184l-67 51l-66 -51h-184zM300 600h200v60q0 100 -100 100t-100 -100v-60z" />
<glyph unicode="&#xeb;" d="M0 380v240q0 400 400 400t400 -400v-220h-500v-60q0 -100 100 -100q77 0 95 60h301q-38 -320 -396 -320q-400 0 -400 400zM150 1100v200h200v-200h-200zM300 600h200v60q0 100 -100 100t-100 -100v-60zM450 1100v200h200v-200h-200z" />
<glyph unicode="&#xec;" horiz-adv-x="400" d="M-100 1400h300l100 -300h-200zM0 0v1000h300v-1000h-300z" />
<glyph unicode="&#xed;" horiz-adv-x="400" d="M0 0v1000h300v-1000h-300zM0 1100l100 300h300l-200 -300h-200z" />
<glyph unicode="&#xee;" horiz-adv-x="400" d="M-100 1100l250 252l251 -252h-184l-67 51l-66 -51h-184zM0 0v1000h300v-1000h-300z" />
<glyph unicode="&#xef;" horiz-adv-x="400" d="M-100 1100v200h200v-200h-200zM0 0v1000h300v-1000h-300zM200 1100v200h200v-200h-200z" />
<glyph unicode="&#xf0;" d="M0 380v200q0 280 300 280q200 -1 200 -70v170h-120v100h120q0 100 -100 100v260q400 0 400 -400v-640q0 -400 -400 -400t-400 400zM300 340q0 -100 100 -100t100 100v170q0 70 -100 70t-100 -80v-160z" />
<glyph unicode="&#xf1;" d="M0 0v1000h300v-50q0 69 200 70q300 0 300 -250v-770h-300v680q0 80 -100 80t-100 -70v-690h-300zM150 1091v192q148 74 258.5 0t258.5 0v-192q-148 -74 -258.5 0t-258.5 0z" />
<glyph unicode="&#xf2;" d="M0 380v240q0 400 400 400t400 -400v-240q0 -400 -400 -400t-400 400zM133 1400h300l100 -300h-200zM300 340q0 -100 100 -100t100 100v320q0 100 -100 100t-100 -100v-320z" />
<glyph unicode="&#xf3;" d="M0 380v240q0 400 400 400t400 -400v-240q0 -400 -400 -400t-400 400zM267 1100l100 300h300l-200 -300h-200zM300 340q0 -100 100 -100t100 100v320q0 100 -100 100t-100 -100v-320z" />
<glyph unicode="&#xf4;" d="M0 380v240q0 400 400 400t400 -400v-240q0 -400 -400 -400t-400 400zM150 1100l250 252l251 -252h-184l-67 51l-66 -51h-184zM300 340q0 -100 100 -100t100 100v320q0 100 -100 100t-100 -100v-320z" />
<glyph unicode="&#xf5;" d="M0 380v240q0 400 400 400t400 -400v-240q0 -400 -400 -400t-400 400zM150 1091v192q148 74 258.5 0t258.5 0v-192q-148 -74 -258.5 0t-258.5 0zM300 340q0 -100 100 -100t100 100v320q0 100 -100 100t-100 -100v-320z" />
<glyph unicode="&#xf6;" d="M0 380v240q0 400 400 400t400 -400v-240q0 -400 -400 -400t-400 400zM150 1100v200h200v-200h-200zM300 340q0 -100 100 -100t100 100v320q0 100 -100 100t-100 -100v-320zM450 1100v200h200v-200h-200z" />
<glyph unicode="&#xf7;" horiz-adv-x="1000" d="M0 570v260h900v-260h-900zM300 240v260h300v-260h-300zM300 900v260h300v-260h-300z" />
<glyph unicode="&#xf8;" d="M0 380v240q0 400 400 400h24l44 182h202l-54 -224q184 -87 184 -358v-240q0 -400 -400 -400h-24l-43 -180h-203l53 222q-183 87 -183 358zM300 505l60 250q-60 -17 -60 -95v-155zM440 245q60 18 60 95v155z" />
<glyph unicode="&#xf9;" d="M0 230v770h300v-680q0 -80 100 -80t100 70v690h300v-1000h-300v50q0 -69 -200 -70q-300 0 -300 250zM133 1400h300l100 -300h-200z" />
<glyph unicode="&#xfa;" d="M0 230v770h300v-680q0 -80 100 -80t100 70v690h300v-1000h-300v50q0 -69 -200 -70q-300 0 -300 250zM267 1100l100 300h300l-200 -300h-200z" />
<glyph unicode="&#xfb;" d="M0 230v770h300v-680q0 -80 100 -80t100 70v690h300v-1000h-300v50q0 -69 -200 -70q-300 0 -300 250zM150 1100l250 252l251 -252h-184l-67 51l-66 -51h-184z" />
<glyph unicode="&#xfc;" d="M0 230v770h300v-680q0 -80 100 -80t100 70v690h300v-1000h-300v50q0 -69 -200 -70q-300 0 -300 250zM150 1100v200h200v-200h-200zM450 1100v200h200v-200h-200z" />
<glyph unicode="&#xfd;" d="M0 231v769h300v-679q0 -80 100 -80t100 70v689h300v-1000q0 -400 -400 -400q-358 0 -396 320h301q18 -60 95 -60q100 0 100 100v91q0 -69 -200 -70q-300 0 -300 250zM267 1100l100 300h300l-200 -300h-200z" />
<glyph unicode="&#xfe;" d="M0 -400v1800l300 1v-451q0 69 200 70q300 0 300 -250v-540q0 -250 -300 -250q-200 0 -200 70v-450h-300zM300 310q0 -70 100 -70t100 80v360q0 80 -100 80t-100 -70v-380z" />
<glyph unicode="&#xff;" d="M0 231v769h300v-679q0 -80 100 -80t100 70v689h300v-1000q0 -400 -400 -400q-358 0 -396 320h301q18 -60 95 -60q100 0 100 100v91q0 -69 -200 -70q-300 0 -300 250zM150 1100v200h200v-200h-200zM450 1100v200h200v-200h-200z" />
<glyph unicode="&#x152;" horiz-adv-x="1300" d="M0 380v640q0 400 400 400q89 0 159 -20h641v-260h-400v-310h300v-260h-300v-310h400v-260h-641q-70 -20 -159 -20q-400 0 -400 400zM300 340q0 -100 100 -100t100 100v720q0 100 -100 100t-100 -100v-720z" />
<glyph unicode="&#x153;" horiz-adv-x="1400" d="M0 380v240q0 400 400 400q155 0 250 -60q95 60 250 60q400 0 400 -400v-220h-500v-60q0 -100 100 -100q77 0 95 60h301q-38 -320 -396 -320q-155 0 -250 60q-95 -60 -250 -60q-400 0 -400 400zM300 340q0 -100 100 -100t100 100v320q0 100 -100 100t-100 -100v-320z M800 600h200v60q0 100 -100 100t-100 -100v-60z" />
<glyph unicode="&#x2000;" horiz-adv-x="905" />
<glyph unicode="&#x2001;" horiz-adv-x="1810" />
<glyph unicode="&#x2002;" horiz-adv-x="905" />
<glyph unicode="&#x2003;" horiz-adv-x="1810" />
<glyph unicode="&#x2004;" horiz-adv-x="603" />
<glyph unicode="&#x2005;" horiz-adv-x="452" />
<glyph unicode="&#x2006;" horiz-adv-x="301" />
<glyph unicode="&#x2007;" horiz-adv-x="301" />
<glyph unicode="&#x2008;" horiz-adv-x="226" />
<glyph unicode="&#x2009;" horiz-adv-x="362" />
<glyph unicode="&#x200a;" horiz-adv-x="100" />
<glyph unicode="&#x2010;" d="M0 566v260h700v-260h-700z" />
<glyph unicode="&#x2011;" d="M0 566v260h700v-260h-700z" />
<glyph unicode="&#x2012;" d="M0 566v260h700v-260h-700z" />
<glyph unicode="&#x2013;" horiz-adv-x="1224" d="M0 566v260h1024v-260h-1024z" />
<glyph unicode="&#x2014;" horiz-adv-x="2248" d="M0 566v260h2048v-260h-2048z" />
<glyph unicode="&#x202f;" horiz-adv-x="362" />
<glyph unicode="&#x205f;" horiz-adv-x="452" />
<glyph unicode="&#x25fc;" horiz-adv-x="1000" d="M0 0v1000h1000v-1000h-1000z" />
</font>
</defs>
</svg>
